<mxfile host="app.diagrams.net" modified="2023-08-07T17:28:18.460Z" agent="Mozilla/5.0 (Macintosh; Intel Mac OS X 10.15; rv:109.0) Gecko/20100101 Firefox/115.0" etag="9hXK4Uj0DCsvUHxszYC1" version="21.6.6" type="device">
  <diagram name="Page-1" id="98tTxqm0uRkZmQvXz75y">
    <mxGraphModel dx="871" dy="1128" grid="1" gridSize="10" guides="1" tooltips="1" connect="1" arrows="1" fold="1" page="1" pageScale="1" pageWidth="850" pageHeight="1100" math="0" shadow="0">
      <root>
        <mxCell id="0" />
        <mxCell id="1" parent="0" />
        <mxCell id="qZIdV0pUl1OWgDBLHN0M-9" value="" style="edgeStyle=orthogonalEdgeStyle;rounded=0;orthogonalLoop=1;jettySize=auto;html=1;" edge="1" parent="1" source="qZIdV0pUl1OWgDBLHN0M-7" target="qZIdV0pUl1OWgDBLHN0M-8">
          <mxGeometry relative="1" as="geometry" />
        </mxCell>
        <mxCell id="qZIdV0pUl1OWgDBLHN0M-17" value="" style="edgeStyle=orthogonalEdgeStyle;rounded=0;orthogonalLoop=1;jettySize=auto;html=1;" edge="1" parent="1" source="qZIdV0pUl1OWgDBLHN0M-7" target="qZIdV0pUl1OWgDBLHN0M-16">
          <mxGeometry relative="1" as="geometry" />
        </mxCell>
        <mxCell id="qZIdV0pUl1OWgDBLHN0M-7" value="&lt;div&gt;channel&lt;/div&gt;&lt;div&gt;exists&lt;/div&gt;" style="rhombus;whiteSpace=wrap;html=1;" vertex="1" parent="1">
          <mxGeometry x="280" y="40" width="80" height="80" as="geometry" />
        </mxCell>
        <mxCell id="qZIdV0pUl1OWgDBLHN0M-11" value="" style="edgeStyle=orthogonalEdgeStyle;rounded=0;orthogonalLoop=1;jettySize=auto;html=1;" edge="1" parent="1" source="qZIdV0pUl1OWgDBLHN0M-8" target="qZIdV0pUl1OWgDBLHN0M-10">
          <mxGeometry relative="1" as="geometry" />
        </mxCell>
        <mxCell id="qZIdV0pUl1OWgDBLHN0M-8" value="&lt;div&gt;channel&lt;/div&gt;&lt;div&gt;invite only&lt;/div&gt;" style="rhombus;whiteSpace=wrap;html=1;" vertex="1" parent="1">
          <mxGeometry x="280" y="174" width="80" height="80" as="geometry" />
        </mxCell>
        <mxCell id="qZIdV0pUl1OWgDBLHN0M-20" value="" style="edgeStyle=orthogonalEdgeStyle;rounded=0;orthogonalLoop=1;jettySize=auto;html=1;" edge="1" parent="1" source="qZIdV0pUl1OWgDBLHN0M-10" target="qZIdV0pUl1OWgDBLHN0M-19">
          <mxGeometry relative="1" as="geometry" />
        </mxCell>
        <mxCell id="qZIdV0pUl1OWgDBLHN0M-10" value="issuer is channel operator" style="rhombus;whiteSpace=wrap;html=1;" vertex="1" parent="1">
          <mxGeometry x="280" y="309" width="80" height="80" as="geometry" />
        </mxCell>
        <mxCell id="qZIdV0pUl1OWgDBLHN0M-15" value="" style="edgeStyle=orthogonalEdgeStyle;rounded=0;orthogonalLoop=1;jettySize=auto;html=1;" edge="1" parent="1" source="qZIdV0pUl1OWgDBLHN0M-12" target="qZIdV0pUl1OWgDBLHN0M-14">
          <mxGeometry relative="1" as="geometry" />
        </mxCell>
        <mxCell id="qZIdV0pUl1OWgDBLHN0M-24" value="" style="edgeStyle=orthogonalEdgeStyle;rounded=0;orthogonalLoop=1;jettySize=auto;html=1;" edge="1" parent="1" source="qZIdV0pUl1OWgDBLHN0M-12" target="qZIdV0pUl1OWgDBLHN0M-23">
          <mxGeometry relative="1" as="geometry" />
        </mxCell>
        <mxCell id="qZIdV0pUl1OWgDBLHN0M-12" value="&lt;div&gt;nickname exists&lt;br&gt;&lt;/div&gt;" style="rhombus;whiteSpace=wrap;html=1;" vertex="1" parent="1">
          <mxGeometry x="280" y="577" width="80" height="80" as="geometry" />
        </mxCell>
        <mxCell id="qZIdV0pUl1OWgDBLHN0M-22" value="" style="edgeStyle=orthogonalEdgeStyle;rounded=0;orthogonalLoop=1;jettySize=auto;html=1;" edge="1" parent="1" source="qZIdV0pUl1OWgDBLHN0M-14" target="qZIdV0pUl1OWgDBLHN0M-21">
          <mxGeometry relative="1" as="geometry" />
        </mxCell>
        <mxCell id="qZIdV0pUl1OWgDBLHN0M-26" value="" style="edgeStyle=orthogonalEdgeStyle;rounded=0;orthogonalLoop=1;jettySize=auto;html=1;" edge="1" parent="1" source="qZIdV0pUl1OWgDBLHN0M-14" target="qZIdV0pUl1OWgDBLHN0M-25">
          <mxGeometry relative="1" as="geometry" />
        </mxCell>
        <mxCell id="qZIdV0pUl1OWgDBLHN0M-14" value="&lt;div&gt;nickname&lt;/div&gt;&lt;div&gt;!on channel&lt;br&gt;&lt;/div&gt;" style="rhombus;whiteSpace=wrap;html=1;" vertex="1" parent="1">
          <mxGeometry x="280" y="711" width="80" height="80" as="geometry" />
        </mxCell>
        <mxCell id="qZIdV0pUl1OWgDBLHN0M-16" value="&lt;h3 id=&quot;errnosuchchannel-403&quot;&gt;&lt;code&gt;ERR_NOSUCHCHANNEL (403)&lt;/code&gt;&lt;/h3&gt;" style="rounded=1;whiteSpace=wrap;html=1;" vertex="1" parent="1">
          <mxGeometry x="420" y="50" width="120" height="60" as="geometry" />
        </mxCell>
        <mxCell id="qZIdV0pUl1OWgDBLHN0M-19" value="&lt;h3 id=&quot;errchanoprivsneeded-482&quot;&gt;&lt;code&gt;ERR_CHANOPRIVSNEEDED (482)&lt;/code&gt;&lt;/h3&gt;" style="rounded=1;whiteSpace=wrap;html=1;" vertex="1" parent="1">
          <mxGeometry x="420" y="319" width="120" height="60" as="geometry" />
        </mxCell>
        <mxCell id="qZIdV0pUl1OWgDBLHN0M-21" value="&lt;h3 id=&quot;erruseronchannel-443&quot;&gt;&lt;code&gt;ERR_USERONCHANNEL (443)&lt;/code&gt;&#xa;&lt;/h3&gt;" style="rounded=1;whiteSpace=wrap;html=1;" vertex="1" parent="1">
          <mxGeometry x="420" y="721" width="120" height="60" as="geometry" />
        </mxCell>
        <mxCell id="qZIdV0pUl1OWgDBLHN0M-23" value="&lt;h3 id=&quot;errnosuchnick-401&quot;&gt;&lt;code&gt;ERR_NOSUCHNICK (401)&lt;/code&gt;&#xa;&lt;/h3&gt;" style="rounded=1;whiteSpace=wrap;html=1;" vertex="1" parent="1">
          <mxGeometry x="420" y="587" width="120" height="60" as="geometry" />
        </mxCell>
        <mxCell id="qZIdV0pUl1OWgDBLHN0M-28" value="" style="edgeStyle=orthogonalEdgeStyle;rounded=0;orthogonalLoop=1;jettySize=auto;html=1;" edge="1" parent="1" source="qZIdV0pUl1OWgDBLHN0M-25" target="qZIdV0pUl1OWgDBLHN0M-27">
          <mxGeometry relative="1" as="geometry" />
        </mxCell>
        <mxCell id="qZIdV0pUl1OWgDBLHN0M-25" value="&lt;h3 id=&quot;rplinviting-341&quot;&gt;&lt;code&gt;RPL_INVITING (341)&lt;/code&gt;&lt;/h3&gt;" style="rounded=1;whiteSpace=wrap;html=1;" vertex="1" parent="1">
          <mxGeometry x="260" y="856" width="120" height="60" as="geometry" />
        </mxCell>
        <mxCell id="qZIdV0pUl1OWgDBLHN0M-38" value="" style="edgeStyle=orthogonalEdgeStyle;rounded=0;orthogonalLoop=1;jettySize=auto;html=1;" edge="1" parent="1" source="qZIdV0pUl1OWgDBLHN0M-27" target="qZIdV0pUl1OWgDBLHN0M-37">
          <mxGeometry relative="1" as="geometry" />
        </mxCell>
        <mxCell id="qZIdV0pUl1OWgDBLHN0M-27" value="INVITE message with issuer as &amp;lt;source&amp;gt; to target user only" style="whiteSpace=wrap;html=1;rounded=1;" vertex="1" parent="1">
          <mxGeometry x="260" y="990" width="120" height="60" as="geometry" />
        </mxCell>
        <mxCell id="qZIdV0pUl1OWgDBLHN0M-31" value="" style="edgeStyle=orthogonalEdgeStyle;rounded=0;orthogonalLoop=1;jettySize=auto;html=1;" edge="1" parent="1" source="qZIdV0pUl1OWgDBLHN0M-29" target="qZIdV0pUl1OWgDBLHN0M-12">
          <mxGeometry relative="1" as="geometry" />
        </mxCell>
        <mxCell id="qZIdV0pUl1OWgDBLHN0M-35" value="" style="edgeStyle=orthogonalEdgeStyle;rounded=0;orthogonalLoop=1;jettySize=auto;html=1;" edge="1" parent="1" source="qZIdV0pUl1OWgDBLHN0M-29" target="qZIdV0pUl1OWgDBLHN0M-34">
          <mxGeometry relative="1" as="geometry" />
        </mxCell>
        <mxCell id="qZIdV0pUl1OWgDBLHN0M-29" value="issuer is on channel" style="rhombus;whiteSpace=wrap;html=1;" vertex="1" parent="1">
          <mxGeometry x="280" y="443" width="80" height="80" as="geometry" />
        </mxCell>
        <mxCell id="qZIdV0pUl1OWgDBLHN0M-33" value="" style="edgeStyle=segmentEdgeStyle;endArrow=classic;html=1;curved=0;rounded=0;endSize=8;startSize=8;exitX=0;exitY=0.5;exitDx=0;exitDy=0;entryX=0;entryY=0.5;entryDx=0;entryDy=0;" edge="1" parent="1" source="qZIdV0pUl1OWgDBLHN0M-8" target="qZIdV0pUl1OWgDBLHN0M-29">
          <mxGeometry width="50" height="50" relative="1" as="geometry">
            <mxPoint x="310" y="640" as="sourcePoint" />
            <mxPoint x="360" y="590" as="targetPoint" />
            <Array as="points">
              <mxPoint x="170" y="214" />
              <mxPoint x="170" y="483" />
            </Array>
          </mxGeometry>
        </mxCell>
        <mxCell id="qZIdV0pUl1OWgDBLHN0M-34" value="&lt;h3 id=&quot;errnotonchannel-442&quot;&gt;&lt;code&gt;ERR_NOTONCHANNEL (442)&lt;/code&gt;&lt;/h3&gt;" style="rounded=1;whiteSpace=wrap;html=1;" vertex="1" parent="1">
          <mxGeometry x="420" y="453" width="120" height="60" as="geometry" />
        </mxCell>
        <mxCell id="qZIdV0pUl1OWgDBLHN0M-36" value="" style="edgeStyle=segmentEdgeStyle;endArrow=classic;html=1;curved=0;rounded=0;endSize=8;startSize=8;exitX=0.5;exitY=1;exitDx=0;exitDy=0;entryX=0;entryY=0.5;entryDx=0;entryDy=0;" edge="1" parent="1" source="qZIdV0pUl1OWgDBLHN0M-10" target="qZIdV0pUl1OWgDBLHN0M-12">
          <mxGeometry width="50" height="50" relative="1" as="geometry">
            <mxPoint x="310" y="640" as="sourcePoint" />
            <mxPoint x="360" y="590" as="targetPoint" />
            <Array as="points">
              <mxPoint x="320" y="420" />
              <mxPoint x="200" y="420" />
              <mxPoint x="200" y="617" />
            </Array>
          </mxGeometry>
        </mxCell>
        <mxCell id="qZIdV0pUl1OWgDBLHN0M-37" value="END" style="ellipse;whiteSpace=wrap;html=1;rounded=1;" vertex="1" parent="1">
          <mxGeometry x="680" y="980" width="80" height="80" as="geometry" />
        </mxCell>
        <mxCell id="qZIdV0pUl1OWgDBLHN0M-39" value="" style="edgeStyle=segmentEdgeStyle;endArrow=classic;html=1;curved=0;rounded=0;endSize=8;startSize=8;exitX=1;exitY=0.5;exitDx=0;exitDy=0;entryX=0.5;entryY=0;entryDx=0;entryDy=0;" edge="1" parent="1" source="qZIdV0pUl1OWgDBLHN0M-16" target="qZIdV0pUl1OWgDBLHN0M-37">
          <mxGeometry width="50" height="50" relative="1" as="geometry">
            <mxPoint x="310" y="640" as="sourcePoint" />
            <mxPoint x="360" y="590" as="targetPoint" />
          </mxGeometry>
        </mxCell>
        <mxCell id="qZIdV0pUl1OWgDBLHN0M-40" value="" style="endArrow=classic;html=1;rounded=0;exitX=1;exitY=0.5;exitDx=0;exitDy=0;" edge="1" parent="1" source="qZIdV0pUl1OWgDBLHN0M-19">
          <mxGeometry width="50" height="50" relative="1" as="geometry">
            <mxPoint x="310" y="640" as="sourcePoint" />
            <mxPoint x="720" y="349" as="targetPoint" />
          </mxGeometry>
        </mxCell>
        <mxCell id="qZIdV0pUl1OWgDBLHN0M-41" value="" style="endArrow=classic;html=1;rounded=0;exitX=1;exitY=0.5;exitDx=0;exitDy=0;" edge="1" parent="1">
          <mxGeometry width="50" height="50" relative="1" as="geometry">
            <mxPoint x="540" y="750.5" as="sourcePoint" />
            <mxPoint x="720" y="750.5" as="targetPoint" />
          </mxGeometry>
        </mxCell>
        <mxCell id="qZIdV0pUl1OWgDBLHN0M-42" value="" style="endArrow=classic;html=1;rounded=0;exitX=1;exitY=0.5;exitDx=0;exitDy=0;" edge="1" parent="1">
          <mxGeometry width="50" height="50" relative="1" as="geometry">
            <mxPoint x="540" y="616.5" as="sourcePoint" />
            <mxPoint x="720" y="616.5" as="targetPoint" />
          </mxGeometry>
        </mxCell>
        <mxCell id="qZIdV0pUl1OWgDBLHN0M-43" value="" style="endArrow=classic;html=1;rounded=0;exitX=1;exitY=0.5;exitDx=0;exitDy=0;" edge="1" parent="1" source="qZIdV0pUl1OWgDBLHN0M-34">
          <mxGeometry width="50" height="50" relative="1" as="geometry">
            <mxPoint x="570" y="379" as="sourcePoint" />
            <mxPoint x="720" y="483" as="targetPoint" />
          </mxGeometry>
        </mxCell>
      </root>
    </mxGraphModel>
  </diagram>
</mxfile>
